<svg xmlns="http://www.w3.org/2000/svg" viewBox="0 0 32 32" shape-rendering="crispEdges">
  <path d="M7.5 3.5h13l5 5v20h-18z" fill="#ffffff" stroke="#000"/>
  <path d="M20.5 3.5v5h5" fill="#c0c0c0" stroke="#000"/>
  <rect x="10.5" y="11.5" width="12" height="13" fill="#202020" stroke="#000"/>
  <path d="M12 13h1v1h-1zM12 16h1v1h-1zM12 19h1v1h-1zM12 22h1v1h-1zM20 13h1v1h-1zM20 16h1v1h-1zM20 19h1v1h-1zM20 22h1v1h-1z" fill="#ffffff"/>
  <path d="M15 15v6l4-3z" fill="#ff4040"/>
  <rect x="26" y="9" width="1" height="20" fill="#808080"/>
  <rect x="8" y="29" width="19" height="1" fill="#808080"/>
</svg>
